<?xml version="1.0" encoding="UTF-8"?>
<svg xmlns="http://www.w3.org/2000/svg" xmlns:xlink="http://www.w3.org/1999/xlink" viewBox="0 0 50 50" width="50px" height="50px">
<g id="surface62377609">
<path style=" stroke:none;fill-rule:nonzero;fill:rgb(100%,100%,100%);fill-opacity:1;" d="M 14 4 C 8.488281 4 4 8.488281 4 14 L 4 36 C 4 41.511719 8.488281 46 14 46 L 36 46 C 41.511719 46 46 41.511719 46 36 L 46 14 C 46 8.488281 41.511719 4 36 4 Z M 13 16 L 37 16 C 37.179688 16 37.351562 16.019531 37.511719 16.070312 L 27.679688 25.890625 C 26.199219 27.371094 23.789062 27.371094 22.3125 25.890625 L 12.492188 16.070312 C 12.648438 16.019531 12.820312 16 13 16 Z M 11.070312 17.488281 L 18.589844 25 L 11.070312 32.511719 C 11.019531 32.351562 11 32.179688 11 32 L 11 18 C 11 17.820312 11.019531 17.648438 11.070312 17.488281 Z M 38.929688 17.488281 C 38.980469 17.648438 39 17.820312 39 18 L 39 32 C 39 32.179688 38.980469 32.351562 38.929688 32.511719 L 31.398438 25 Z M 20 26.410156 L 20.890625 27.3125 C 22.019531 28.441406 23.511719 29 24.992188 29 C 26.480469 29 27.960938 28.441406 29.089844 27.3125 L 29.992188 26.410156 L 37.511719 33.929688 C 37.351562 33.980469 37.179688 34 37 34 L 13 34 C 12.820312 34 12.648438 33.980469 12.488281 33.929688 Z M 20 26.410156 "/>
</g>
</svg>
